HIERARCHY
ROOT Hips
{
 OFFSET 0.000000 0.000000 0.000000
 CHANNELS 6 Xposition Yposition Zposition Yrotation Xrotation Zrotation
 JOINT Chest
 {
  OFFSET 0.000000 9.581000 -0.001100
  CHANNELS 3 Yrotation Xrotation Zrotation
  JOINT Chest2
  {
   OFFSET 0.000000 9.561100 0.002200
   CHANNELS 3 Yrotation Xrotation Zrotation
   JOINT Chest3
   {
    OFFSET 0.000000 9.521100 0.000000
    CHANNELS 3 Yrotation Xrotation Zrotation
    JOINT Chest4
    {
     OFFSET 0.000000 9.511400 0.000000
     CHANNELS 3 Yrotation Xrotation Zrotation
     JOINT Neck
     {
      OFFSET 0.000000 14.375100 0.000000
      CHANNELS 3 Yrotation Xrotation Zrotation
      JOINT Head
      {
       OFFSET 0.000000 8.901200 0.004600
       CHANNELS 3 Yrotation Xrotation Zrotation
       End Site
       {
        OFFSET 0.000000 16.962200 0.002400
       }
      }
     }
     JOINT RightCollar
     {
      OFFSET -2.920100 9.518800 0.000000
      CHANNELS 3 Yrotation Xrotation Zrotation
      JOINT RightShoulder
      {
       OFFSET -13.664500 0.000000 0.000000
       CHANNELS 3 Yrotation Xrotation Zrotation
       JOINT RightElbow
       {
        OFFSET 0.000000 -29.999200 0.000000
        CHANNELS 3 Yrotation Xrotation Zrotation
        JOINT RightWrist
        {
         OFFSET 0.000000 -24.253600 0.000000
         CHANNELS 3 Yrotation Xrotation Zrotation
         End Site
         {
          OFFSET 0.000000 -17.918900 0.000000
         }
        }
       }
      }
     }
     JOINT LeftCollar
     {
      OFFSET 2.920100 9.518800 0.000000
      CHANNELS 3 Yrotation Xrotation Zrotation
      JOINT LeftShoulder
      {
       OFFSET 13.664500 0.000000 0.000000
       CHANNELS 3 Yrotation Xrotation Zrotation
       JOINT LeftElbow
       {
        OFFSET 0.000000 -29.999200 0.000000
        CHANNELS 3 Yrotation Xrotation Zrotation
        JOINT LeftWrist
        {
         OFFSET 0.000000 -24.253600 0.000000
         CHANNELS 3 Yrotation Xrotation Zrotation
         End Site
         {
          OFFSET 0.000000 -17.918900 0.000000
         }
        }
       }
      }
     }
    }
   }
  }
 }
 JOINT RightHip
 {
  OFFSET -7.797300 0.005300 0.000500
  CHANNELS 3 Yrotation Xrotation Zrotation
  JOINT RightKnee
  {
   OFFSET 0.000000 -40.663400 -0.000500
   CHANNELS 3 Yrotation Xrotation Zrotation
   JOINT RightAnkle
   {
    OFFSET 0.000000 -39.523700 -0.000900
    CHANNELS 3 Yrotation Xrotation Zrotation
    JOINT RightToe
    {
     OFFSET 0.000000 -6.418000 14.485300
     CHANNELS 3 Yrotation Xrotation Zrotation
     End Site
     {
      OFFSET 0.000000 -1.465200 6.326400
     }
    }
   }
  }
 }
 JOINT LeftHip
 {
  OFFSET 7.797300 0.005300 0.000500
  CHANNELS 3 Yrotation Xrotation Zrotation
  JOINT LeftKnee
  {
   OFFSET 0.000000 -40.663400 -0.000500
   CHANNELS 3 Yrotation Xrotation Zrotation
   JOINT LeftAnkle
   {
    OFFSET 0.000000 -39.523700 -0.000900
    CHANNELS 3 Yrotation Xrotation Zrotation
    JOINT LeftToe
    {
     OFFSET 0.000000 -6.418000 14.485300
     CHANNELS 3 Yrotation Xrotation Zrotation
     End Site
     {
      OFFSET 0.000000 -1.465200 6.326400
     }
    }
   }
  }
 }
}
MOTION
Frames: 13
Frame Time: 0.008333
-12.744222 126.890277 -4.748065 -172.502683 -46.245771 -4.412494 -0.149087 25.336569 1.463329 -0.066206 4.064494 0.234142 -0.098275 6.510414 0.369023 -0.164627 20.938624 1.205448 3.939462 14.372521 0.672437 4.005247 -10.584630 -0.189546 1.777489 1.135926 3.000111 2.306316 -13.381873 -12.795146 -99.146767 -60.538481 145.608396 1.642995 -0.665994 2.855919 -9.731090 -2.635242 0.071190 -9.701791 -9.870590 10.139055 57.503946 -52.710500 -102.929737 -1.249116 -6.689725 -4.460945 -10.843521 -13.338737 -10.157339 -167.602878 75.159343 -171.848128 23.926347 22.380596 -4.851024 0.000853 0.000929 0.000378 12.277158 -17.051113 -8.377136 6.598524 70.610580 -5.970551 6.688873 -6.530850 16.022745 -0.003182 -0.010010 -0.001410
-12.743664 126.890532 -4.747256 -172.510405 -46.253786 -4.408623 -0.143348 25.338218 1.465796 -0.066062 4.060385 0.234647 -0.096338 6.490231 0.372805 -0.161836 20.952155 1.203943 3.861302 14.331253 0.637010 3.928588 -10.630011 -0.209090 1.728923 1.142398 2.996233 2.154670 -13.197295 -12.575156 -99.030623 -60.564653 145.455643 1.725449 -0.310824 2.872003 -9.739543 -2.623835 0.083523 -9.665787 -9.807656 10.146500 57.560406 -52.824600 -102.920692 -1.304378 -6.666142 -4.359503 -10.831127 -13.330295 -10.161203 -167.644618 75.157794 -171.880512 23.917096 22.379751 -4.860224 -0.000112 0.001165 -0.000049 12.267858 -17.013548 -8.375575 6.651411 70.611204 -5.890900 6.602988 -6.659930 15.934797 -0.000998 -0.007345 -0.000442
-12.744086 126.890101 -4.745888 -172.510902 -46.254769 -4.403581 -0.145944 25.333175 1.460891 -0.065659 4.063089 0.234371 -0.089700 6.482483 0.373753 -0.155640 20.949987 1.206979 3.783569 14.287840 0.601395 3.852546 -10.677618 -0.228904 1.613361 1.138728 2.988366 2.062320 -13.003514 -12.350533 -98.888508 -60.594032 145.283704 1.813816 0.035551 2.858575 -9.761145 -2.613438 0.098182 -9.622960 -9.742182 10.150220 57.626633 -52.952064 -102.912036 -1.365776 -6.637315 -4.247916 -10.822235 -13.328382 -10.166532 -167.653375 75.156290 -171.883384 23.915705 22.378080 -4.860613 0.000126 0.000473 0.000056 12.254612 -16.970110 -8.368158 6.625443 70.591106 -5.913983 6.530257 -6.794070 15.865527 -0.005248 -0.006223 -0.002325
-12.743223 126.889850 -4.744819 -172.514841 -46.255826 -4.403880 -0.141106 25.326552 1.463832 -0.064296 4.062308 0.234655 -0.078616 6.480896 0.376951 -0.160290 20.953682 1.207953 3.744752 14.265828 0.583555 3.753299 -10.752778 -0.263909 1.550818 1.142930 2.982271 1.927981 -12.826301 -12.131859 -98.735962 -60.627806 145.101323 1.908151 0.374261 2.817278 -9.781283 -2.615836 0.131094 -9.570944 -9.669536 10.132756 57.695756 -53.085780 -102.902850 -1.434927 -6.603489 -4.129881 -10.815307 -13.324058 -10.161234 -167.646833 75.156720 -171.872961 23.915920 22.376981 -4.861733 0.000253 0.002184 0.000112 12.247950 -16.932757 -8.359341 6.654748 70.600464 -5.861349 6.436283 -6.951456 15.768476 -0.006716 -0.013283 -0.002975
-12.742116 126.890121 -4.744262 -172.505308 -46.259215 -4.415863 -0.129848 25.323259 1.478803 -0.052736 4.053337 0.239065 -0.091624 6.486762 0.374876 -0.162619 20.956849 1.208746 3.664438 14.202918 0.535972 3.694060 -10.785970 -0.277933 1.483226 1.151045 2.975726 1.801641 -12.648889 -11.917672 -98.584684 -60.666872 144.922399 2.007567 0.710899 2.760083 -9.796298 -2.613189 0.138928 -9.525235 -9.593510 10.138337 57.764373 -53.226154 -102.894257 -1.507951 -6.566401 -4.000038 -10.820947 -13.315685 -10.156759 -167.652284 75.159057 -171.873656 23.911708 22.379049 -4.869150 -0.000044 -0.000379 -0.000020 12.232781 -16.896165 -8.359820 6.773832 70.613909 -5.705248 6.311537 -7.115756 15.650661 -0.000888 -0.018891 -0.000393
-12.742963 126.891137 -4.744375 -172.511345 -46.269870 -4.405618 -0.111655 25.321550 1.485264 -0.061516 4.058648 0.235634 -0.088718 6.482726 0.376060 -0.152932 20.955150 1.210018 3.577654 14.146447 0.491096 3.640942 -10.817772 -0.294848 1.419726 1.163729 2.973928 1.668624 -12.466580 -11.709846 -98.430278 -60.714296 144.749276 2.108051 1.045929 2.691532 -9.816700 -2.602592 0.142338 -9.477351 -9.517808 10.147743 57.836734 -53.372684 -102.887218 -1.583478 -6.524492 -3.858651 -10.810696 -13.305071 -10.162780 -167.666823 75.156651 -171.885478 23.905764 22.377823 -4.873755 0.001022 -0.001097 0.000453 12.230063 -16.833582 -8.359271 6.838111 70.608263 -5.620291 6.187065 -7.307044 15.549258 -0.000836 -0.007842 -0.000370
-12.743070 126.891349 -4.743720 -172.513134 -46.272996 -4.402432 -0.109515 25.322520 1.484660 -0.061291 4.058390 0.235702 -0.081756 6.474597 0.378836 -0.134529 20.940188 1.218723 3.523975 14.144405 0.471745 3.556503 -10.887580 -0.337655 1.336515 1.188527 2.966349 1.557892 -12.277173 -11.505215 -98.270355 -60.770604 144.577257 2.206201 1.379207 2.606902 -9.849427 -2.583986 0.146206 -9.444954 -9.476572 10.143208 57.878673 -53.508177 -102.809272 -1.666057 -6.481203 -3.719528 -10.803127 -13.300583 -10.164306 -167.656113 75.155160 -171.870536 23.906343 22.378009 -4.877470 0.001012 -0.001884 0.000449 12.222232 -16.774049 -8.353014 6.891245 70.600189 -5.548828 6.062266 -7.502560 15.447106 -0.001160 -0.005520 -0.000514
-12.742813 126.891576 -4.743075 -172.510882 -46.275856 -4.404570 -0.104698 25.317518 1.490303 -0.060870 4.057259 0.236191 -0.078147 6.473468 0.380300 -0.128956 20.937859 1.223214 3.480788 14.129932 0.451151 3.474450 -10.957402 -0.384859 1.254320 1.199014 2.956890 1.474438 -12.080773 -11.307031 -98.099244 -60.832175 144.397912 2.302134 1.713286 2.497966 -9.872071 -2.573868 0.162259 -9.363258 -9.382156 10.135532 57.972467 -53.670781 -102.827313 -1.759458 -6.449101 -3.591243 -10.787314 -13.289623 -10.162565 -167.642985 75.156247 -171.844496 23.909214 22.374209 -4.873835 0.001392 -0.002030 0.000617 12.213238 -16.716575 -8.342213 6.936448 70.597247 -5.483906 5.931931 -7.706405 15.343411 -0.000985 -0.006103 -0.000436
-12.742806 126.892013 -4.742594 -172.511021 -46.280669 -4.403998 -0.096298 25.314677 1.496212 -0.059531 4.056337 0.236851 -0.082328 6.476737 0.379575 -0.120220 20.930511 1.231574 3.378888 14.049112 0.373270 3.446028 -10.964074 -0.392951 1.215017 1.209619 2.949360 1.368950 -11.883173 -11.122190 -97.899122 -60.897663 144.197543 2.393300 2.048022 2.363977 -9.882279 -2.557839 0.164848 -9.288398 -9.288953 10.137429 58.070164 -53.841869 -102.846414 -1.863157 -6.432761 -3.468981 -10.774123 -13.278829 -10.163653 -167.635176 75.156466 -171.828834 23.912520 22.371475 -4.869933 0.001266 -0.001064 0.000561 12.207303 -16.653085 -8.327776 6.957853 70.592746 -5.442943 5.795489 -7.918588 15.238878 -0.001137 -0.006539 -0.000504
-12.744242 126.892529 -4.742146 -172.496725 -46.286169 -4.405831 -0.101831 25.313947 1.493111 -0.053547 4.048827 0.244880 -0.092284 6.485842 0.371953 -0.117087 20.925485 1.241346 3.306438 13.992151 0.312785 3.403721 -10.997126 -0.423501 1.183770 1.217218 2.937095 1.277186 -11.683786 -10.945917 -97.655588 -60.968426 143.964590 2.473734 2.382728 2.213783 -9.879288 -2.540771 0.163734 -9.236352 -9.214979 10.138519 58.165108 -54.012796 -102.838510 -1.975789 -6.429790 -3.350687 -10.769903 -13.268642 -10.171082 -167.660231 75.153471 -171.854065 23.911209 22.360754 -4.860787 -0.000228 0.000199 -0.000101 12.194702 -16.582631 -8.318431 6.961972 70.585308 -5.419772 5.656137 -8.140874 15.127980 -0.001232 -0.006442 -0.000546
-12.744632 126.892239 -4.740979 -172.481839 -46.284834 -4.414475 -0.105588 25.305897 1.502831 -0.059443 4.054104 0.238409 -0.083428 6.473376 0.386874 -0.130015 20.932597 1.235891 3.251129 13.947201 0.259522 3.356586 -11.044951 -0.466742 1.134000 1.210917 2.923052 1.225673 -11.471279 -10.781493 -97.374041 -61.043741 143.699086 2.534659 2.724153 2.065987 -9.876484 -2.530333 0.156889 -9.174814 -9.132420 10.144234 58.269369 -54.190652 -102.838541 -2.098370 -6.435196 -3.240726 -10.765757 -13.264985 -10.172006 -167.682795 75.151313 -171.869776 23.910934 22.357555 -4.861210 0.000066 0.000609 0.000029 12.179654 -16.531618 -8.308477 6.987040 70.593114 -5.368686 5.518487 -8.372447 14.994574 -0.002078 -0.013728 -0.000920
-12.744443 126.891535 -4.739466 -172.466776 -46.280008 -4.427319 -0.110559 25.297643 1.512866 -0.060233 4.053879 0.239236 -0.085249 6.471796 0.385949 -0.133690 20.935299 1.235861 3.200939 13.898125 0.208079 3.313281 -11.093269 -0.512898 1.094382 1.195383 2.920879 1.188261 -11.251925 -10.640952 -97.059006 -61.117777 143.398776 2.569987 3.077989 1.946196 -9.872997 -2.522460 0.155530 -9.142808 -9.093754 10.145595 58.336107 -54.353754 -102.755171 -2.230259 -6.442510 -3.139617 -10.769971 -13.263135 -10.167603 -167.693734 75.153065 -171.878975 23.909623 22.354124 -4.859311 0.000128 0.000111 0.000057 12.161442 -16.470955 -8.293872 7.021587 70.589342 -5.300609 5.374547 -8.611770 14.836327 -0.003167 -0.026040 -0.001403
-12.744775 126.891571 -4.738693 -172.461959 -46.282113 -4.431229 -0.108904 25.294462 1.518901 -0.060832 4.053516 0.240078 -0.084931 6.472464 0.385789 -0.138552 20.936479 1.236998 3.153612 13.849834 0.153820 3.270109 -11.142979 -0.560135 1.047191 1.134757 2.951149 1.187302 -10.982442 -10.554103 -96.698319 -61.185429 143.048526 2.589101 3.438523 1.876506 -9.857442 -2.509036 0.156746 -9.121103 -9.059631 10.145352 58.404519 -54.519594 -102.665417 -2.366157 -6.450067 -3.051056 -10.764924 -13.257306 -10.165709 -167.691937 75.151165 -171.876911 23.912939 22.351563 -4.861506 0.000542 -0.000666 0.000240 12.154045 -16.400832 -8.273996 7.066767 70.585964 -5.225039 5.212283 -8.873622 14.667810 -0.003768 -0.025802 -0.001668
